<mxfile host="app.diagrams.net" modified="2021-04-15T11:13:06.306Z" agent="5.0 (X11; Linux x86_64) AppleWebKit/537.36 (KHTML, like Gecko) Chrome/89.0.4389.114 Safari/537.36" etag="m82WqEIlJYBEZ1ydV0DB" version="14.6.0" type="github">
  <diagram id="DFs7KdWJiQCUr092RV4H" name="Page-2">
    <mxGraphModel dx="1209" dy="680" grid="1" gridSize="10" guides="1" tooltips="1" connect="1" arrows="1" fold="1" page="1" pageScale="1" pageWidth="827" pageHeight="1169" math="0" shadow="0">
      <root>
        <mxCell id="0" />
        <mxCell id="1" parent="0" />
        <mxCell id="Z3gJZl96Js9K3rxOOWTj-1" value="&lt;div&gt;Aluno&lt;/div&gt;" style="whiteSpace=wrap;html=1;align=center;" parent="1" vertex="1">
          <mxGeometry x="460" y="490" width="160" height="90" as="geometry" />
        </mxCell>
        <mxCell id="Z3gJZl96Js9K3rxOOWTj-2" value="Mentor" style="whiteSpace=wrap;html=1;align=center;" parent="1" vertex="1">
          <mxGeometry x="1030" y="495" width="160" height="90" as="geometry" />
        </mxCell>
        <mxCell id="Z3gJZl96Js9K3rxOOWTj-3" value="" style="edgeStyle=orthogonalEdgeStyle;rounded=0;orthogonalLoop=1;jettySize=auto;html=1;" parent="1" source="Z3gJZl96Js9K3rxOOWTj-4" target="Z3gJZl96Js9K3rxOOWTj-5" edge="1">
          <mxGeometry relative="1" as="geometry" />
        </mxCell>
        <mxCell id="Z3gJZl96Js9K3rxOOWTj-4" value="Turma" style="whiteSpace=wrap;html=1;align=center;" parent="1" vertex="1">
          <mxGeometry x="460" y="780" width="160" height="90" as="geometry" />
        </mxCell>
        <mxCell id="Z3gJZl96Js9K3rxOOWTj-5" value="&lt;div&gt;está &lt;br&gt;&lt;/div&gt;&lt;div&gt;vinculado à&lt;/div&gt;" style="shape=rhombus;perimeter=rhombusPerimeter;whiteSpace=wrap;html=1;align=center;fillColor=#FFFFFF;direction=west;" parent="1" vertex="1">
          <mxGeometry x="480" y="630" width="120" height="60" as="geometry" />
        </mxCell>
        <mxCell id="Z3gJZl96Js9K3rxOOWTj-6" value="" style="endArrow=none;html=1;rounded=0;startArrow=none;startFill=0;endFill=0;" parent="1" source="Z3gJZl96Js9K3rxOOWTj-5" target="Z3gJZl96Js9K3rxOOWTj-4" edge="1">
          <mxGeometry relative="1" as="geometry">
            <mxPoint x="540" y="220" as="sourcePoint" />
            <mxPoint x="730" y="220" as="targetPoint" />
            <Array as="points">
              <mxPoint x="540" y="720" />
            </Array>
          </mxGeometry>
        </mxCell>
        <mxCell id="Z3gJZl96Js9K3rxOOWTj-7" value="1" style="resizable=0;html=1;align=right;verticalAlign=bottom;" parent="Z3gJZl96Js9K3rxOOWTj-6" connectable="0" vertex="1">
          <mxGeometry x="1" relative="1" as="geometry">
            <mxPoint x="10" y="-0.34" as="offset" />
          </mxGeometry>
        </mxCell>
        <mxCell id="Z3gJZl96Js9K3rxOOWTj-8" value="" style="endArrow=none;html=1;rounded=0;entryX=0.5;entryY=1;entryDx=0;entryDy=0;" parent="1" source="Z3gJZl96Js9K3rxOOWTj-1" target="Z3gJZl96Js9K3rxOOWTj-5" edge="1">
          <mxGeometry relative="1" as="geometry">
            <mxPoint x="730" y="490" as="sourcePoint" />
            <mxPoint x="890" y="490" as="targetPoint" />
          </mxGeometry>
        </mxCell>
        <mxCell id="Z3gJZl96Js9K3rxOOWTj-9" value="N" style="resizable=0;html=1;align=left;verticalAlign=bottom;" parent="Z3gJZl96Js9K3rxOOWTj-8" connectable="0" vertex="1">
          <mxGeometry x="-1" relative="1" as="geometry">
            <mxPoint y="20" as="offset" />
          </mxGeometry>
        </mxCell>
        <mxCell id="Z3gJZl96Js9K3rxOOWTj-10" value="mentora" style="shape=rhombus;perimeter=rhombusPerimeter;whiteSpace=wrap;html=1;align=center;fillColor=#FFFFFF;" parent="1" vertex="1">
          <mxGeometry x="750" y="510" width="120" height="60" as="geometry" />
        </mxCell>
        <mxCell id="Z3gJZl96Js9K3rxOOWTj-11" value="" style="endArrow=none;html=1;rounded=0;" parent="1" edge="1">
          <mxGeometry relative="1" as="geometry">
            <mxPoint x="870" y="539.5" as="sourcePoint" />
            <mxPoint x="1030" y="539.5" as="targetPoint" />
          </mxGeometry>
        </mxCell>
        <mxCell id="Z3gJZl96Js9K3rxOOWTj-12" value="1" style="resizable=0;html=1;align=right;verticalAlign=bottom;" parent="Z3gJZl96Js9K3rxOOWTj-11" connectable="0" vertex="1">
          <mxGeometry x="1" relative="1" as="geometry" />
        </mxCell>
        <mxCell id="Z3gJZl96Js9K3rxOOWTj-13" value="" style="endArrow=none;html=1;rounded=0;exitX=1.013;exitY=0.578;exitDx=0;exitDy=0;exitPerimeter=0;" parent="1" source="Z3gJZl96Js9K3rxOOWTj-1" edge="1">
          <mxGeometry relative="1" as="geometry">
            <mxPoint x="624" y="539.5" as="sourcePoint" />
            <mxPoint x="750" y="539.5" as="targetPoint" />
          </mxGeometry>
        </mxCell>
        <mxCell id="Z3gJZl96Js9K3rxOOWTj-14" value="3" style="resizable=0;html=1;align=left;verticalAlign=bottom;" parent="Z3gJZl96Js9K3rxOOWTj-13" connectable="0" vertex="1">
          <mxGeometry x="-1" relative="1" as="geometry" />
        </mxCell>
        <mxCell id="Z3gJZl96Js9K3rxOOWTj-15" value="" style="resizable=0;html=1;align=right;verticalAlign=bottom;" parent="Z3gJZl96Js9K3rxOOWTj-13" connectable="0" vertex="1">
          <mxGeometry x="1" relative="1" as="geometry" />
        </mxCell>
        <mxCell id="Z3gJZl96Js9K3rxOOWTj-16" value="&lt;u&gt;id&lt;/u&gt;" style="ellipse;whiteSpace=wrap;html=1;align=center;fillColor=#FFFFFF;" parent="1" vertex="1">
          <mxGeometry x="630" y="780" width="100" height="40" as="geometry" />
        </mxCell>
        <mxCell id="Z3gJZl96Js9K3rxOOWTj-17" value="ano_letivo" style="ellipse;whiteSpace=wrap;html=1;align=center;fillColor=#FFFFFF;" parent="1" vertex="1">
          <mxGeometry x="630" y="830" width="100" height="40" as="geometry" />
        </mxCell>
        <mxCell id="Z3gJZl96Js9K3rxOOWTj-18" value="&lt;u&gt;id&lt;/u&gt;" style="ellipse;whiteSpace=wrap;html=1;align=center;fillColor=#FFFFFF;" parent="1" vertex="1">
          <mxGeometry x="900" y="340" width="100" height="40" as="geometry" />
        </mxCell>
        <mxCell id="Z3gJZl96Js9K3rxOOWTj-19" value="nome" style="ellipse;whiteSpace=wrap;html=1;align=center;fillColor=#FFFFFF;" parent="1" vertex="1">
          <mxGeometry x="900" y="290" width="100" height="40" as="geometry" />
        </mxCell>
        <mxCell id="Z3gJZl96Js9K3rxOOWTj-20" value="disponivel" style="ellipse;whiteSpace=wrap;html=1;align=center;fillColor=#FFFFFF;" parent="1" vertex="1">
          <mxGeometry x="1030" y="600" width="100" height="40" as="geometry" />
        </mxCell>
        <mxCell id="Z3gJZl96Js9K3rxOOWTj-21" value="Pessoa" style="whiteSpace=wrap;html=1;align=center;" parent="1" vertex="1">
          <mxGeometry x="730" y="290" width="160" height="90" as="geometry" />
        </mxCell>
        <mxCell id="Z3gJZl96Js9K3rxOOWTj-22" value="" style="triangle;whiteSpace=wrap;html=1;fillColor=#FFFFFF;rotation=-90;" parent="1" vertex="1">
          <mxGeometry x="780" y="400" width="60" height="80" as="geometry" />
        </mxCell>
        <mxCell id="Z3gJZl96Js9K3rxOOWTj-23" value="&lt;div&gt;É&lt;/div&gt;" style="text;html=1;strokeColor=none;fillColor=none;align=center;verticalAlign=middle;whiteSpace=wrap;rounded=0;" parent="1" vertex="1">
          <mxGeometry x="790" y="440" width="40" height="20" as="geometry" />
        </mxCell>
        <mxCell id="Z3gJZl96Js9K3rxOOWTj-24" value="" style="endArrow=none;html=1;entryX=0.133;entryY=0.925;entryDx=0;entryDy=0;entryPerimeter=0;" parent="1" source="Z3gJZl96Js9K3rxOOWTj-2" target="Z3gJZl96Js9K3rxOOWTj-22" edge="1">
          <mxGeometry width="50" height="50" relative="1" as="geometry">
            <mxPoint x="790" y="530" as="sourcePoint" />
            <mxPoint x="840" y="480" as="targetPoint" />
          </mxGeometry>
        </mxCell>
        <mxCell id="Z3gJZl96Js9K3rxOOWTj-25" value="" style="endArrow=none;html=1;" parent="1" source="Z3gJZl96Js9K3rxOOWTj-22" target="Z3gJZl96Js9K3rxOOWTj-1" edge="1">
          <mxGeometry width="50" height="50" relative="1" as="geometry">
            <mxPoint x="650" y="370" as="sourcePoint" />
            <mxPoint x="700" y="510" as="targetPoint" />
          </mxGeometry>
        </mxCell>
        <mxCell id="Z3gJZl96Js9K3rxOOWTj-26" value="" style="endArrow=none;html=1;" parent="1" source="Z3gJZl96Js9K3rxOOWTj-22" target="Z3gJZl96Js9K3rxOOWTj-21" edge="1">
          <mxGeometry width="50" height="50" relative="1" as="geometry">
            <mxPoint x="860" y="450" as="sourcePoint" />
            <mxPoint x="910" y="400" as="targetPoint" />
          </mxGeometry>
        </mxCell>
        <mxCell id="Z3gJZl96Js9K3rxOOWTj-27" value="&lt;div style=&quot;font-size: 14px&quot;&gt;&lt;font style=&quot;font-size: 14px ; background-color: rgb(255 , 255 , 255)&quot;&gt;Preciso de um sistema para controlar os alunos, turmas, mentores e mentorias da minha escola.&lt;/font&gt;&lt;/div&gt;&lt;div style=&quot;font-size: 14px&quot;&gt;&lt;font style=&quot;font-size: 14px ; background-color: rgb(255 , 255 , 255)&quot;&gt;Um aluno está sempre vinculado a uma turma.&lt;/font&gt;&lt;/div&gt;&lt;div style=&quot;font-size: 14px&quot;&gt;&lt;font style=&quot;font-size: 14px ; background-color: rgb(255 , 255 , 255)&quot;&gt;Uma turma é referente ao ano letivo (Turma 2020 - 2021; Turma 2021 - 2022).&lt;/font&gt;&lt;/div&gt;&lt;div style=&quot;font-size: 14px&quot;&gt;&lt;font style=&quot;font-size: 14px ; background-color: rgb(255 , 255 , 255)&quot;&gt;O mentor pode mentorar no maximo 3 alunos por turma.&lt;/font&gt;&lt;/div&gt;" style="text;html=1;align=left;verticalAlign=middle;whiteSpace=wrap;rounded=0;" parent="1" vertex="1">
          <mxGeometry x="420" y="130" width="850" height="130" as="geometry" />
        </mxCell>
        <mxCell id="Z3gJZl96Js9K3rxOOWTj-28" value="Mentoria" style="shape=ext;margin=3;double=1;whiteSpace=wrap;html=1;align=center;fillColor=none;" parent="1" vertex="1">
          <mxGeometry x="890" y="780" width="200" height="80" as="geometry" />
        </mxCell>
        <mxCell id="Z3gJZl96Js9K3rxOOWTj-29" value="Faz" style="shape=rhombus;perimeter=rhombusPerimeter;whiteSpace=wrap;html=1;align=center;fillColor=none;" parent="1" vertex="1">
          <mxGeometry x="720" y="640" width="120" height="60" as="geometry" />
        </mxCell>
        <mxCell id="Z3gJZl96Js9K3rxOOWTj-30" value="" style="endArrow=none;html=1;rounded=0;entryX=0;entryY=0;entryDx=0;entryDy=0;exitX=1;exitY=0.5;exitDx=0;exitDy=0;" parent="1" source="Z3gJZl96Js9K3rxOOWTj-29" target="Z3gJZl96Js9K3rxOOWTj-28" edge="1">
          <mxGeometry relative="1" as="geometry">
            <mxPoint x="730" y="720" as="sourcePoint" />
            <mxPoint x="890" y="720" as="targetPoint" />
          </mxGeometry>
        </mxCell>
        <mxCell id="Z3gJZl96Js9K3rxOOWTj-31" value="N" style="resizable=0;html=1;align=right;verticalAlign=bottom;" parent="Z3gJZl96Js9K3rxOOWTj-30" connectable="0" vertex="1">
          <mxGeometry x="1" relative="1" as="geometry">
            <mxPoint x="10.06" y="0.13" as="offset" />
          </mxGeometry>
        </mxCell>
        <mxCell id="Z3gJZl96Js9K3rxOOWTj-32" value="" style="endArrow=none;html=1;rounded=0;entryX=1;entryY=1;entryDx=0;entryDy=0;exitX=0;exitY=0.5;exitDx=0;exitDy=0;" parent="1" source="Z3gJZl96Js9K3rxOOWTj-29" target="Z3gJZl96Js9K3rxOOWTj-1" edge="1">
          <mxGeometry relative="1" as="geometry">
            <mxPoint x="950" y="740" as="sourcePoint" />
            <mxPoint x="890" y="720" as="targetPoint" />
          </mxGeometry>
        </mxCell>
        <mxCell id="Z3gJZl96Js9K3rxOOWTj-33" value="1" style="resizable=0;html=1;align=right;verticalAlign=bottom;" parent="Z3gJZl96Js9K3rxOOWTj-32" connectable="0" vertex="1">
          <mxGeometry x="1" relative="1" as="geometry" />
        </mxCell>
        <mxCell id="Z3gJZl96Js9K3rxOOWTj-34" value="" style="endArrow=oval;html=1;endFill=1;strokeWidth=1;endSize=19;" parent="1" edge="1">
          <mxGeometry width="50" height="50" relative="1" as="geometry">
            <mxPoint x="940" y="780" as="sourcePoint" />
            <mxPoint x="940" y="730" as="targetPoint" />
          </mxGeometry>
        </mxCell>
        <mxCell id="Z3gJZl96Js9K3rxOOWTj-35" value="&lt;u&gt;data&lt;/u&gt;" style="text;html=1;strokeColor=none;fillColor=none;align=center;verticalAlign=middle;whiteSpace=wrap;rounded=0;" parent="1" vertex="1">
          <mxGeometry x="920" y="695" width="40" height="20" as="geometry" />
        </mxCell>
        <mxCell id="Z3gJZl96Js9K3rxOOWTj-36" value="" style="endArrow=oval;html=1;endFill=0;strokeWidth=1;endSize=19;" parent="1" edge="1">
          <mxGeometry width="50" height="50" relative="1" as="geometry">
            <mxPoint x="989.41" y="780" as="sourcePoint" />
            <mxPoint x="989.41" y="730" as="targetPoint" />
          </mxGeometry>
        </mxCell>
        <mxCell id="Z3gJZl96Js9K3rxOOWTj-37" value="aluno_id" style="text;html=1;strokeColor=none;fillColor=none;align=center;verticalAlign=middle;whiteSpace=wrap;rounded=0;" parent="1" vertex="1">
          <mxGeometry x="970" y="695" width="40" height="20" as="geometry" />
        </mxCell>
        <mxCell id="Z3gJZl96Js9K3rxOOWTj-38" value="" style="endArrow=oval;html=1;endFill=0;strokeWidth=1;endSize=19;" parent="1" edge="1">
          <mxGeometry width="50" height="50" relative="1" as="geometry">
            <mxPoint x="1050" y="780" as="sourcePoint" />
            <mxPoint x="1050" y="730" as="targetPoint" />
          </mxGeometry>
        </mxCell>
        <mxCell id="Z3gJZl96Js9K3rxOOWTj-39" value="conteúdo" style="text;html=1;strokeColor=none;fillColor=none;align=center;verticalAlign=middle;whiteSpace=wrap;rounded=0;" parent="1" vertex="1">
          <mxGeometry x="1030" y="695" width="40" height="20" as="geometry" />
        </mxCell>
        <mxCell id="Z3gJZl96Js9K3rxOOWTj-40" value="" style="endArrow=oval;html=1;endFill=0;strokeWidth=1;endSize=19;" parent="1" edge="1">
          <mxGeometry width="50" height="50" relative="1" as="geometry">
            <mxPoint x="480" y="490" as="sourcePoint" />
            <mxPoint x="480" y="440" as="targetPoint" />
          </mxGeometry>
        </mxCell>
        <mxCell id="Z3gJZl96Js9K3rxOOWTj-41" value="id_turma" style="text;html=1;strokeColor=none;fillColor=none;align=center;verticalAlign=middle;whiteSpace=wrap;rounded=0;" parent="1" vertex="1">
          <mxGeometry x="460" y="405" width="40" height="20" as="geometry" />
        </mxCell>
        <mxCell id="Z3gJZl96Js9K3rxOOWTj-42" value="" style="endArrow=oval;html=1;endFill=0;strokeWidth=1;endSize=19;" parent="1" edge="1">
          <mxGeometry width="50" height="50" relative="1" as="geometry">
            <mxPoint x="529.4099999999999" y="490" as="sourcePoint" />
            <mxPoint x="529.4099999999999" y="440" as="targetPoint" />
          </mxGeometry>
        </mxCell>
        <mxCell id="Z3gJZl96Js9K3rxOOWTj-43" value="id_mentor" style="text;html=1;strokeColor=none;fillColor=none;align=center;verticalAlign=middle;whiteSpace=wrap;rounded=0;" parent="1" vertex="1">
          <mxGeometry x="520" y="405" width="40" height="20" as="geometry" />
        </mxCell>
        <mxCell id="PP-5QirICxwPwKsv5M6j-1" value="" style="ellipse;whiteSpace=wrap;html=1;aspect=fixed;" vertex="1" parent="1">
          <mxGeometry x="170" y="290" width="80" height="80" as="geometry" />
        </mxCell>
      </root>
    </mxGraphModel>
  </diagram>
</mxfile>
